Coordinates
version=1
nRows=17
nColumns=38
inDegrees=no

Units are S.I. units (second, meters, Newtons, ...)
If the header above contains a line with 'inDegrees', this indicates whether rotational values are in degrees (yes) or radians (no).

endheader
time	pelvis_tilt	pelvis_list	pelvis_rotation	pelvis_tx	pelvis_ty	pelvis_tz	hip_flexion_r	hip_adduction_r	hip_rotation_r	knee_angle_r	ankle_angle_r	subtalar_angle_r	mtp_angle_r	hip_flexion_l	hip_adduction_l	hip_rotation_l	knee_angle_l	ankle_angle_l	subtalar_angle_l	mtp_angle_l	lumbar_extension	lumbar_bending	lumbar_rotation	arm_flex_r	arm_add_r	arm_rot_r	elbow_flex_r	pro_sup_r	wrist_flex_r	wrist_dev_r	arm_flex_l	arm_add_l	arm_rot_l	elbow_flex_l	pro_sup_l	wrist_flex_l	wrist_dev_l
8.8	-1.4335	1.44272	-0.286051	0.657692	0.312511	0.977258	0.00111584	0.0794949	-0.165896	0.246265	0.1054	0	0	-0.128986	-0.0929134	-0.240212	0	0.0481962	0	0	-0.231233	0.159185	0.152058	0.295091	-0.466641	0.34373	1.27365	1.18614	0	0	0.170205	-0.22677	0.071543	1.29945	1.32626	0	0
8.81	-1.42908	1.44229	-0.291179	0.65769	0.312724	0.977277	0.000578033	0.0798034	-0.165715	0.245798	0.105134	0	0	-0.129384	-0.0930563	-0.240782	0	0.0480824	0	0	-0.234172	0.159642	0.15282	0.309373	-0.46552	0.35067	1.26245	1.18382	0	0	0.182556	-0.226526	0.0738982	1.28967	1.32309	0	0
8.82	-1.42413	1.44198	-0.296654	0.657725	0.313065	0.977322	-8.23737e-07	0.0799469	-0.16553	0.245471	0.104844	0	0	-0.129822	-0.0931105	-0.241309	0	0.047253	0	0	-0.237159	0.159992	0.15331	0.323524	-0.464199	0.357764	1.25152	1.18063	0	0	0.194935	-0.226302	0.076745	1.27946	1.32041	0	0
8.83	-1.4196	1.44164	-0.301452	0.657672	0.313381	0.97737	-0.000729391	0.0802545	-0.165078	0.244641	0.104277	0	0	-0.130223	-0.0933084	-0.24175	0	0.0468217	0	0	-0.240007	0.160342	0.153638	0.337289	-0.462521	0.364089	1.24109	1.17685	0	0	0.207323	-0.226172	0.0797779	1.269	1.31794	0	0
8.84	-1.41533	1.44128	-0.305893	0.657688	0.313721	0.977418	-0.00136561	0.0806202	-0.164695	0.243918	0.103719	0	0	-0.130524	-0.0935247	-0.241935	0	0.0465515	0	0	-0.242907	0.160726	0.153951	0.350942	-0.460686	0.369732	1.23095	1.17224	0	0	0.219739	-0.225966	0.0823258	1.2585	1.31516	0	0
8.85	-1.40956	1.44078	-0.311636	0.657717	0.314033	0.977472	-0.00215631	0.0810096	-0.164618	0.243576	0.103265	0	0	-0.131085	-0.0938054	-0.24213	0	0.0464748	0	0	-0.245933	0.161229	0.154074	0.364795	-0.458697	0.375304	1.22011	1.16722	0	0	0.23214	-0.22578	0.0845619	1.24778	1.31206	0	0
8.86	-1.40281	1.44013	-0.318315	0.657697	0.31429	0.97754	-0.00321424	0.0814664	-0.164509	0.242997	0.102571	0	0	-0.131908	-0.0941974	-0.242443	0	0.046494	0	0	-0.249039	0.161844	0.154091	0.378759	-0.456562	0.381066	1.20845	1.16318	0	0	0.244487	-0.225594	0.0866526	1.23682	1.30891	0	0
8.87	-1.3979	1.43959	-0.323024	0.657733	0.314581	0.977602	-0.00394271	0.0818876	-0.164425	0.242458	0.101861	0	0	-0.132382	-0.0945899	-0.242479	0	0.0461437	0	0	-0.25185	0.162387	0.153965	0.392643	-0.454227	0.387216	1.19616	1.16069	0	0	0.256887	-0.225525	0.0889161	1.22576	1.30579	0	0
8.88	-1.39445	1.43911	-0.326343	0.657755	0.31484	0.977656	-0.00461861	0.0823922	-0.164007	0.24162	0.100943	0	0	-0.132667	-0.0949682	-0.242363	0	0.0456959	0	0	-0.254219	0.162862	0.153845	0.406457	-0.451732	0.39414	1.18314	1.15869	0	0	0.269296	-0.225505	0.0915548	1.2143	1.30291	0	0
8.89	-1.39097	1.43881	-0.329623	0.657732	0.315061	0.977706	-0.0052188	0.0827146	-0.163598	0.240924	0.099845	0	0	-0.132867	-0.0951142	-0.242243	0	0.0453302	0	0	-0.256399	0.163193	0.153614	0.420544	-0.449167	0.402011	1.16978	1.15577	0	0	0.281877	-0.22545	0.0944983	1.20233	1.30063	0	0
8.9	-1.38847	1.43874	-0.331675	0.657795	0.315286	0.977738	-0.00540955	0.0827911	-0.163863	0.240755	0.100049	0	0	-0.132822	-0.0951191	-0.241851	0	0.0449917	0	0	-0.258358	0.163418	0.153261	0.434403	-0.446602	0.409787	1.15706	1.15183	0	0	0.294601	-0.225267	0.0977076	1.19013	1.29925	0	0
8.91	-1.38358	1.4386	-0.336107	0.657782	0.315488	0.977796	-0.0059826	0.0828174	-0.164113	0.240444	0.100406	0	0	-0.133143	-0.0950959	-0.241528	0	0.0444501	0	0	-0.260579	0.16359	0.152989	0.448785	-0.443836	0.418207	1.14332	1.14621	0	0	0.307896	-0.22512	0.101772	1.17656	1.29817	0	0
8.92	-1.38031	1.43861	-0.338983	0.657776	0.315674	0.97784	-0.00623085	0.0827332	-0.164355	0.240291	0.100356	0	0	-0.133246	-0.0950329	-0.241536	0	0.0440331	0	0	-0.262539	0.163636	0.152841	0.462833	-0.440857	0.425763	1.12964	1.14173	0	0	0.320977	-0.225061	0.105808	1.16344	1.2963	0	0
8.93	-1.37799	1.43868	-0.340801	0.65777	0.31585	0.977876	-0.00635499	0.0826344	-0.164516	0.24015	0.0996675	0	0	-0.133169	-0.0949757	-0.241652	0	0.0439363	0	0	-0.264293	0.163647	0.152384	0.476996	-0.437443	0.433044	1.11519	1.13842	0	0	0.334007	-0.225045	0.109735	1.15018	1.29417	0	0
8.94	-1.37887	1.43882	-0.339474	0.657735	0.316114	0.977874	-0.00599697	0.0825725	-0.164556	0.240249	0.0991531	0	0	-0.132692	-0.094972	-0.24152	0	0.044102	0	0	-0.265599	0.163612	0.152022	0.490266	-0.433532	0.437751	1.10078	1.14627	0	0	0.346866	-0.224564	0.112636	1.13683	1.29845	0	0
8.95	-1.37651	1.43879	-0.341463	0.657729	0.316259	0.97787	-0.00606851	0.0825914	-0.164742	0.240313	0.0986307	0	0	-0.132703	-0.0949975	-0.241213	0	0.0442775	0	0	-0.267286	0.16364	0.151313	0.504589	-0.429841	0.445659	1.08638	1.14327	0	0	0.359691	-0.224519	0.116204	1.12344	1.29676	0	0
8.96	-1.36941	1.43856	-0.348015	0.657732	0.316274	0.977897	-0.00676032	0.0824453	-0.165474	0.240635	0.0988001	0	0	-0.133348	-0.0949815	-0.240799	0	0.0444832	0	0	-0.269419	0.163768	0.149966	0.520689	-0.4261	0.457873	1.07027	1.13075	0	0	0.372584	-0.225096	0.12099	1.10968	1.28638	0	0
